<?xml version="1.0" encoding="UTF-8" standalone="no"?>
<!-- Created with Inkscape (http://www.inkscape.org/) -->

<svg
   xmlns:dc="http://purl.org/dc/elements/1.1/"
   xmlns:cc="http://creativecommons.org/ns#"
   xmlns:rdf="http://www.w3.org/1999/02/22-rdf-syntax-ns#"
   xmlns:svg="http://www.w3.org/2000/svg"
   xmlns="http://www.w3.org/2000/svg"
   xmlns:sodipodi="http://sodipodi.sourceforge.net/DTD/sodipodi-0.dtd"
   xmlns:inkscape="http://www.inkscape.org/namespaces/inkscape"
   width="580"
   height="580"
   viewBox="0 0 153.45833 153.45833"
   version="1.1"
   id="svg821"
   inkscape:version="0.92.2 (5c3e80d, 2017-08-06)"
   sodipodi:docname="ozollapa_esosa.svg">
  <defs
     id="defs815">
    <clipPath
       clipPathUnits="userSpaceOnUse"
       id="clipPath1416">
      <rect
         style="fill:#ffffff;fill-opacity:1;stroke:#000000;stroke-width:0.01333918;stroke-miterlimit:4;stroke-dasharray:none;stroke-opacity:1"
         id="rect1418"
         width="22.140963"
         height="22.224995"
         x="24.437796"
         y="216.10706" />
    </clipPath>
    <clipPath
       clipPathUnits="userSpaceOnUse"
       id="clipPath844">
      <path
         inkscape:connector-curvature="0"
         style="fill:#ff00ff;fill-opacity:1;stroke-width:5.38641787"
         d="m 294.56994,-37.558486 c -7.20511,-5.29e-4 -16.37914,0.006 -28.07375,0.01651 l -53.02828,0.0486 -1.48621,0.422199 c -5.72399,1.626941 -10.0565,5.9895 -11.55899,11.639081 L 200,-23.842526 v 53.575543 53.576051 l 0.4222,1.582848 c 1.65684,6.214481 6.51084,10.739419 12.7341,11.870082 l 5.3e-4,0.0011 c 1.20645,0.218631 9.87359,0.256352 54.65093,0.229452 l 53.21742,-0.032 1.48621,-0.422198 c 5.78221,-1.64347 9.91653,-5.773502 11.55692,-11.545552 l 0.42479,-1.496031 0.0491,-53.012779 c 0.0432,-46.764792 0.0156,-53.206991 -0.23566,-54.661861 -1.15959,-6.71749 -6.41303,-11.969141 -13.13252,-13.1284 -1.09143,-0.188661 -4.98877,-0.251 -26.60406,-0.25218 z"
         id="path846"
         sodipodi:nodetypes="cccccccccccsccccccccc" />
    </clipPath>
    <clipPath
       clipPathUnits="userSpaceOnUse"
       id="clipPath848">
      <path
         sodipodi:nodetypes="cccccccccccsccccccccc"
         id="path850"
         d="m 294.56994,-37.558491 c -7.20511,-5.29e-4 -16.37914,0.006 -28.07375,0.01651 l -53.02828,0.0486 -1.48621,0.4222 c -5.72399,1.626942 -10.0565,5.9895 -11.55899,11.639079 L 200,-23.842531 v 53.57554 53.576059 l 0.4222,1.582848 c 1.65684,6.214481 6.51084,10.739419 12.7341,11.870082 l 5.3e-4,0.0011 c 1.20645,0.218631 9.87359,0.256352 54.65093,0.229452 l 53.21742,-0.032 1.48621,-0.422198 c 5.78221,-1.64347 9.91653,-5.773502 11.55692,-11.545552 l 0.42479,-1.496031 0.0491,-53.012787 c 0.0432,-46.764789 0.0156,-53.206989 -0.23566,-54.661858 -1.15959,-6.717491 -6.41303,-11.969142 -13.13252,-13.1284 -1.09143,-0.188662 -4.98877,-0.251003 -26.60406,-0.252183 z"
         style="fill:#ff00ff;fill-opacity:1;stroke-width:5.38641787"
         inkscape:connector-curvature="0" />
    </clipPath>
  </defs>
  <sodipodi:namedview
     id="base"
     pagecolor="#ffffff"
     bordercolor="#666666"
     borderopacity="1.0"
     inkscape:pageopacity="0.0"
     inkscape:pageshadow="2"
     inkscape:zoom="1"
     inkscape:cx="279.0016"
     inkscape:cy="338.69089"
     inkscape:document-units="mm"
     inkscape:current-layer="layer1"
     showgrid="false"
     inkscape:window-width="1920"
     inkscape:window-height="1007"
     inkscape:window-x="-6"
     inkscape:window-y="-9"
     inkscape:window-maximized="1"
     inkscape:snap-page="true"
     inkscape:snap-bbox="true"
     showguides="true"
     inkscape:guide-bbox="true"
     inkscape:snap-intersection-paths="true"
     units="px">
    <sodipodi:guide
       position="0,0"
       orientation="1,0"
       id="guide827"
       inkscape:locked="false" />
    <sodipodi:guide
       position="0,0"
       orientation="0,1"
       id="guide829"
       inkscape:locked="false" />
  </sodipodi:namedview>
  <metadata
     id="metadata818">
    <rdf:RDF>
      <cc:Work
         rdf:about="">
        <dc:format>image/svg+xml</dc:format>
        <dc:type
           rdf:resource="http://purl.org/dc/dcmitype/StillImage" />
        <dc:title></dc:title>
      </cc:Work>
    </rdf:RDF>
  </metadata>
  <g
     inkscape:label="Layer 1"
     inkscape:groupmode="layer"
     id="layer1"
     transform="translate(0,-143.54167)">
    <path
       id="path852"
       d="m 80.416615,152.99441 c -17.96996,0.007 -37.15523,0.0756 -57.4989,0.0942 l -1.48622,0.42208 c -5.724,1.62605 -10.05638,5.98601 -11.5588798,11.63249 l -0.42289,1.58869 c 0,35.69773 0,71.39547 0,107.0932 l 0.42198,1.58189 c 1.6568698,6.21107 6.5113698,10.73342 12.7346298,11.86346 v 0.002 c 38.83341,0.44853 59.123,0.22646 107.868555,0.197 l 1.48622,-0.42208 c 5.78221,-1.64258 9.91623,-5.77032 11.55662,-11.5392 l 0.42515,-1.49539 0.0489,-52.98345 c 0.0432,-46.73958 0.0155,-53.17824 -0.23569,-54.63231 -1.1596,-6.71382 -6.41263,-11.96293 -13.13213,-13.12155 -15.48277,-0.23133 -32.237425,-0.28732 -50.207395,-0.28078 z"
       style="fill:#ffffff;fill-opacity:1;stroke:#ffffff;stroke-width:18.8994503;stroke-miterlimit:4;stroke-dasharray:none;stroke-opacity:1"
       inkscape:connector-curvature="0"
       sodipodi:nodetypes="sccccccccccccsccs" />
    <g
       id="g855"
       transform="translate(-190.55041,190.55041)">
      <path
         clip-path="url(#clipPath848)"
         sodipodi:nodetypes="sccccscccsccccccccccscccccsccccccccccccccccccccccccccsccccccccscscccccccscccsccscccccsccscscccccsccccccscccccccscccccscssssccccsccccccccssccccccccssscscccccccc"
         style="fill:#b6ccc4;stroke-width:0.51308012"
         d="m 200,97.000003 c 0,-66.777228 1e-5,0 0.26058,-134.559 134.03783,0 0,0 134.03784,0 0.26058,134.559 0,0 0.26058,134.559 H 200.00001 Z m 67.27949,-19.928597 c 0,-3.767289 -0.58824,-4.308007 -4.75571,-4.371518 -2.48162,-0.03633 -3.20924,0.124721 -3.3355,0.746326 -0.27138,1.335661 2.0586,4.188251 4.44871,5.446537 3.3869,1.782959 3.6425,1.655151 3.6425,-1.821345 z m 5.30626,0.287584 c 1.52322,-2.263921 1.47766,-2.70341 -0.24038,-2.318471 -2.06107,0.46195 -2.7301,2.672956 -2.92365,3.977376 -0.14909,1.004606 0.0291,1.118308 1.52427,0.973789 1.25561,-0.121088 0.77065,-1.340928 1.63976,-2.632694 z m -0.99889,-2.891339 c 1.31081,-0.497671 1.33731,-0.577589 0.57587,-1.737309 -1.06906,-1.628573 -0.65074,-2.545875 2.90795,-6.376977 2.88519,-3.105966 3.69928,-4.736719 2.3515,-4.7102 -1.12146,0.02422 -6.70072,2.019868 -7.98338,2.858765 -1.2036,0.787133 -1.22507,0.923236 -0.8683,5.503569 0.3805,4.884992 0.56155,5.650268 1.23823,5.232817 0.22225,-0.13683 1.02239,-0.483747 1.77811,-0.770665 z m -5.05822,-7.839234 c -0.20338,-2.607872 -0.60753,-5.029207 -0.89811,-5.380726 -0.88254,-1.067632 -5.52829,-2.180188 -9.1039,-2.180188 -1.85718,0 -4.15913,-0.224013 -5.11546,-0.497672 -1.9485,-0.55761 -2.70559,-0.322094 -2.30589,0.717386 0.31583,0.821642 5.45011,3.596252 7.58375,4.098403 0.81295,0.191319 2.16623,1.034758 3.00731,1.874321 1.29831,1.295883 1.4799,1.788772 1.20262,3.264108 l -0.32657,1.737733 2.71162,0.493434 c 1.49139,0.271237 2.91475,0.520678 3.16303,0.553977 0.25439,0.03633 0.29,-2.008849 0.0816,-4.680716 z m 6.14318,-5.345005 c 1.41227,-0.50978 2.66497,-0.986806 2.78378,-1.060609 0.11882,-0.07386 -0.26562,-0.65224 -0.85422,-1.28547 -2.76924,-2.979127 -0.69949,-6.762823 5.11799,-9.356104 5.33176,-2.376835 12.95534,-7.882584 12.09866,-8.737707 -0.15237,-0.151966 -3.02042,0.66889 -6.3735,1.824251 -3.35307,1.155421 -8.51345,2.671805 -11.4675,3.369756 -2.95405,0.698012 -5.55039,1.550895 -5.76963,1.89533 -0.47858,0.751896 -0.55313,12.740209 -0.0867,13.953329 0.34628,0.900774 0.40603,0.892903 4.55117,-0.603018 z m -6.75158,-6.137767 c 0.442,-5.219073 0.40773,-9.518725 -0.082,-10.288118 -0.88452,-1.389605 -11.70717,-5.889658 -18.94219,-7.876166 -9.19516,-2.524745 -8.45915,-2.383859 -8.72329,-1.670046 -0.48567,1.312352 3.12169,4.294748 8.54213,7.062274 6.64851,3.39452 8.2393,5.005292 8.2393,8.3429 0,1.997952 -0.25567,2.575663 -1.77115,4.002321 -0.97412,0.916999 -1.6289,1.809296 -1.45506,1.982815 0.17384,0.173156 2.06857,0.333598 4.21052,0.355394 2.42412,0.02422 4.86391,0.396563 6.46224,0.985534 1.41227,0.520073 2.70718,0.963619 2.87758,0.985475 0.17038,0.02422 0.45928,-1.72514 0.64194,-3.882141 z m 8.20668,-10.96621 c 5.21488,-1.302725 13.79259,-4.06014 14.42034,-4.635671 0.26852,-0.246414 -0.11652,-0.651938 -0.90147,-0.949814 -1.74844,-0.663502 -3.16811,-3.529654 -2.69006,-5.430856 0.21254,-0.845255 2.77722,-3.785149 6.41954,-7.358758 5.5113,-5.407304 7.94191,-8.787414 6.81523,-9.477615 -0.19495,-0.119272 -4.00203,2.124549 -8.46013,4.986584 -4.45809,2.862035 -11.04443,6.938219 -14.63631,9.058166 l -6.53068,3.854472 -0.14576,5.500603 c -0.16898,6.377582 -0.61204,6.031997 5.7093,4.452889 z m -7.87454,-6.818221 c 0,-4.40627 -0.15194,-5.437153 -0.89872,-6.096719 -0.84125,-0.743056 -10.74484,-6.660201 -18.87314,-11.276195 -1.97719,-1.122849 -4.90419,-3.054323 -6.50446,-4.292145 -1.60026,-1.237822 -3.16018,-2.250541 -3.46649,-2.250541 -0.92512,0 -0.62161,3.732355 0.44557,5.479352 0.54925,0.899138 1.96962,2.513846 3.15634,3.588199 4.42314,4.00444 4.5716,4.19261 4.5716,5.794423 0,1.322825 -0.37455,1.807722 -2.29477,2.970772 -1.26212,0.764489 -2.30207,1.527585 -2.311,1.695837 -0.009,0.168312 2.46809,0.956776 5.50448,1.752324 6.85284,1.795432 10.83763,3.261444 15.93443,5.862474 2.18121,1.113162 4.13915,2.035428 4.351,2.049474 0.21187,0.01211 0.38516,-2.36067 0.38516,-5.277255 z m 5.93609,-7.324672 c 1.67811,-1.024586 5.13102,-3.058561 7.67311,-4.519971 5.60751,-3.223604 15.92021,-9.997507 15.92021,-10.457218 0,-0.182842 -1.42914,-0.46861 -3.17586,-0.63559 -4.02957,-0.38506 -5.81136,-1.484599 -5.81136,-3.586686 0,-1.9143397 0.52577,-2.9226997 3.63929,-6.9798129 2.67006,-3.47928107 3.88427,-7.39351 3.13729,-10.1135695 -0.58321,-2.1236407 -1.18192,-2.0893728 -2.77518,0.1586252 -2.4505,3.4578485 -15.90838,17.0063802 -18.92086,19.0483472 -2.46799,1.672891 -2.96007,2.270157 -3.23405,3.925127 -0.47191,2.850653 -0.40634,15.023444 0.0809,15.023444 0.22843,0 1.78838,-0.838292 3.4665,-1.862878 z m -5.75722,-4.16028 c 0.44133,-4.664005 0.40742,-12.046254 -0.0582,-12.720532 -0.20751,-0.300299 -2.34166,-1.727744 -4.74252,-3.1718387 -3.18735,-1.917246 -6.50861,-4.709111 -12.30867,-10.34672437 -4.3689,-4.24655493 -8.11987,-7.72099243 -8.33549,-7.72099243 -0.71408,0 -0.98746,2.3095107 -0.51776,4.3738789 0.25452,1.1185501 1.42996,3.52275163 2.61211,5.3427037 2.64325,4.0693426 2.98485,5.3003229 1.92072,6.9213882 -0.76315,1.162565 -3.52369,2.3188947 -5.55188,2.3255547 -0.47761,0.0015 -0.99569,0.208271 -1.15125,0.459529 -0.33603,0.542474 2.8204,3.479099 5.35777,4.984222 0.98859,0.586066 5.26394,3.102819 9.50077,5.592145 4.23683,2.489266 8.74327,5.161254 10.01432,5.93767 1.27105,0.776416 2.4509,1.427687 2.6219,1.447303 0.17099,0.01816 0.4582,-1.521349 0.63829,-3.424428 z m 4.95668,-14.529466 c 2.99737,-1.7839277 19.00153,-18.6036513 19.00153,-19.9698868 0,-0.2669989 -1.14463,-0.4861681 -2.54361,-0.4861681 -1.39899,0 -3.12073,-0.2627609 -3.8261,-0.5830386 -1.35956,-0.6183355 -2.36072,-2.7623195 -2.36072,-5.0554225 0,-2.053592 -1.02521,-4.613452 -1.84769,-4.613452 -0.39602,0 -0.72009,0.353577 -0.72009,0.785922 0,0.998794 -2.26656,5.494427 -4.16077,8.25275 -0.80015,1.1651691 -2.64234,2.9700458 -4.09375,4.0108574 l -2.63892,1.8923627 0.3865,2.9093199 c 0.2126,1.60011693 0.35271,5.3890199 0.3114,8.4198516 -0.0412,3.0307717 0.0981,5.5096234 0.30984,5.5085944 0.21175,-10e-4 1.1938,-0.483141 2.18239,-1.07169 z m -4.71244,-13.927779 -0.62691,-8.593734 -2.0807,-0.546712 c -2.60531,-0.684752 -5.80653,-2.51972 -7.43934,-4.264355 -1.36066,-1.453782 -2.06535,-1.069086 -2.08006,1.135563 -0.0121,1.795855 -1.317,3.933664 -2.81807,4.616358 -0.7406,0.3366241 -2.83783,0.612402 -4.6605,0.612402 -2.57622,0 -3.31395,0.1683122 -3.31395,0.7549834 0,0.4153317 3.12142,3.8176614 6.93649,7.5609141 4.98621,4.8923776 8.19893,7.571812 11.42659,9.5299858 l 4.49012,2.7239947 0.39663,-2.4677117 c 0.21939,-1.365146 0.11652,-6.3072905 -0.23025,-11.0615066 z m 5.24201,-6.957775 c 2.4874,-2.575904 4.86392,-6.816889 5.43236,-9.694242 0.31626,-1.600844 0.26489,-1.665989 -1.31387,-1.665989 -1.29018,0 -2.27885,-0.60544 -4.60423,-2.819351 -3.46049,-3.294622 -4.40724,-3.570219 -3.96182,-1.153363 0.16887,0.916272 0.46069,5.299051 0.64854,9.739528 0.21151,5.000389 0.54372,8.0735407 0.87279,8.0735407 0.29218,0 1.609,-1.1160677 2.92623,-2.4801237 z m -5.70846,-7.131234 c -0.0515,-4.134185 -0.64006,-9.182827 -1.1266,-9.66851 -0.55695,-0.555794 -6.67141,2.327189 -7.9832,3.764201 -0.88355,0.967977 -1.10769,1.65394 -0.86406,2.6445 0.51163,2.080231 3.81409,5.134433 6.41842,5.936035 3.65673,1.125452 3.60356,1.165472 3.55544,-2.676226 z"
         id="path1393"
         inkscape:connector-curvature="0" />
      <path
         clip-path="url(#clipPath844)"
         style="fill:#4da329;stroke:none;stroke-width:0.51308012;stroke-opacity:1"
         d="m 200.13029,29.720503 0.13029,-67.2795 h 67.01891 67.01892 l 0.13028,67.2795 0.13029,67.2795 H 267.27949 200 Z m 73.20437,50.752445 c 1.05358,-0.872741 3.19306,-4.329621 3.16904,-5.120325 -0.0109,-0.357815 -0.76196,-1.115947 -1.66906,-1.684213 -2.44259,-1.530309 -2.34714,-2.776789 0.43115,-5.630106 2.68929,-2.761956 4.33427,-5.22434 4.33713,-6.492252 0.001,-0.472848 -1.14252,-1.55598 -2.56585,-2.430175 -1.91675,-1.177156 -2.56778,-1.885582 -2.56778,-2.794165 0,-2.034944 1.97779,-3.891586 6.35853,-5.969031 2.29537,-1.088521 5.85444,-3.191697 7.90902,-4.673754 5.38425,-3.883835 5.6268,-6.033692 0.87229,-7.731587 -2.84224,-1.014959 -3.30933,-1.560885 -3.32021,-3.880567 -0.007,-1.467101 0.70533,-2.364787 5.69404,-7.176459 5.54598,-5.349243 7.65052,-8.19814 7.65052,-10.356472 0,-1.383854 -2.81194,-3.080599 -5.13555,-3.098884 -0.98859,-0.0061 -2.69788,-0.222801 -3.7984,-0.477692 -3.43172,-0.794579 -3.71031,-2.353647 -1.07071,-5.9919766 3.87341,-5.3390105 4.83833,-7.06197117 5.16222,-9.2178818 0.84523,-5.625989 -1.55672,-8.3948466 -7.28243,-8.3948466 -1.9313,0 -3.36689,-0.25368 -3.69943,-0.653573 -0.29891,-0.359631 -0.70526,-1.916459 -0.90306,-3.460089 -0.63201,-4.932094 -2.55209,-7.163624 -6.16384,-7.163624 -1.57834,0 -2.32125,-0.441971 -4.74154,-2.819352 -2.73825,-2.689908 -2.99275,-2.819351 -5.54516,-2.819351 -4.82516,0 -11.50138,3.848841 -11.50138,6.630474 0,0.469216 -0.23656,1.089731 -0.52576,1.378344 -0.28915,0.288795 -0.74444,1.866026 -1.01174,3.505315 -0.68046,4.173176 -1.29983,4.688042 -6.05151,5.0306 -4.26683,0.307563 -6.96995,1.353279 -7.87861,3.0479656 -1.11327,2.0763559 -0.25664,5.6891364 2.29157,9.6646964 3.60271,5.6206003 3.26516,7.0689333 -1.84025,7.8961463 -2.09915,0.340257 -4.82085,2.7724297 -5.34224,4.7742557 -0.59667,2.290924 1.32121,5.751315 5.33989,9.634546 4.20291,4.061229 4.49576,5.192251 1.64917,6.369166 -2.23559,0.924325 -4.60691,3.550965 -4.59354,5.088177 0.0218,2.475219 3.64965,5.502116 10.24881,8.550445 4.58452,2.117768 6.05281,3.388283 6.46789,5.596746 0.3176,1.689843 -0.87503,4.850057 -1.83034,4.850057 -0.26537,0 -1.31141,0.726467 -2.32453,1.614345 -1.36611,1.197257 -1.80195,1.953391 -1.68692,2.926636 0.18925,1.601448 3.17859,3.78194 6.83132,4.982951 5.06971,1.667018 5.85413,3.044515 4.10844,7.214845 -0.42369,1.012113 -0.77034,2.38071 -0.77034,3.041305 0,1.443187 2.61913,4.550062 4.82662,5.725463 2.98389,1.588735 8.82869,1.875411 10.47254,0.513413 z"
         id="path1383"
         inkscape:connector-curvature="0" />
      <path
         style="fill:#0d6940;stroke-width:0.51308012"
         d="m 266.49727,86.901872 c -0.48015,-2.878927 -0.64663,-3.229598 -1.53311,-3.229598 -1.42101,0 -4.85569,-2.031735 -6.92288,-4.095074 -2.67957,-2.674651 -3.37901,-5.263028 -2.28852,-8.469074 0.44837,-1.318284 0.70587,-2.681432 0.57217,-3.029257 -0.13369,-0.348128 -1.36345,-1.057885 -2.73276,-1.577897 -6.18363,-2.348441 -9.38467,-5.643305 -8.66409,-8.918008 0.32791,-1.49029 2.75432,-4.107243 4.76218,-5.136188 1.39584,-0.715267 1.52657,-2.629849 0.25675,-3.760266 -0.49428,-0.440154 -2.86307,-1.733374 -5.26393,-2.874083 -10.3871,-4.935061 -13.64123,-11.540652 -7.79002,-15.812998 1.03628,-0.756618 2.09802,-1.555799 2.35945,-1.775937 0.26768,-0.225224 -0.80466,-1.73961 -2.45454,-3.466143 -4.55583,-4.767475 -6.03724,-9.271645 -4.20967,-12.79924 1.11387,-2.1499767 4.13434,-4.5694957 6.18359,-4.9532239 0.99775,-0.1870809 1.9298,-0.5267326 2.07123,-0.7549834 0.14145,-0.2282508 -0.72567,-1.9798488 -1.92687,-3.8921305 -1.95809,-3.11716737 -2.2036,-3.864038 -2.37337,-7.2197487 l -0.18937,-3.7429501 1.99375,-1.9900204 c 2.2267,-2.22263 4.73994,-3.12074 8.74488,-3.124978 1.46622,-0.0016 2.81874,-0.250046 3.0056,-0.551555 0.18688,-0.301509 0.64549,-2.007397 1.01919,-3.790235 0.74799,-3.568402 2.1835,-6.730675 3.65419,-8.049868 0.52438,-0.470426 2.83961,-1.681366 5.14501,-2.69118 6.40055,-2.80361 9.41607,-2.477338 13.52601,1.463349 1.7955,1.721507 2.8117,2.277725 4.55572,2.493382 1.61145,0.19919 2.74618,0.75898 4.0222,1.984027 2.27434,2.183397 2.76,3.109417 3.44448,6.56775 l 0.55968,2.827767 3.08133,0.272448 c 3.71037,0.327544 6.10776,1.518504 7.50062,3.7253324 0.87082,1.3797368 1.00427,2.2941931 0.83794,5.7419308 -0.21836,4.52596533 -0.8861,6.2087853 -4.04373,10.1909446 -1.09111,1.3759835 -1.98384,2.8011275 -1.98384,3.1668745 0,0.4262287 1.06027,0.7940337 2.95295,1.0241617 3.67967,0.44742 6.68029,1.600661 7.33313,2.818261 0.27423,0.511597 0.49641,1.92542 0.49374,3.142173 -0.007,3.375205 -2.28315,6.770996 -8.27904,12.353333 -4.56382,4.249098 -5.1728,5.006685 -4.58892,5.708934 0.37031,0.445604 1.19151,0.809655 1.82498,0.809655 1.66334,0 3.69132,1.787137 4.37524,3.855622 0.49708,1.503429 0.44152,2.09567 -0.34798,3.70838 -1.19971,2.450639 -6.79469,6.711058 -12.2821,9.352531 -5.54788,2.670535 -5.98993,3.24425 -3.58915,4.658133 2.21441,1.304118 2.86315,2.366907 2.86315,4.690464 0,1.807964 -2.06081,5.520703 -4.03073,7.261887 -1.44713,1.279052 -1.3984,1.670348 0.41908,3.364974 1.7264,1.609683 1.64021,2.677134 -0.51861,6.423232 -1.71797,2.981004 -2.597,3.899154 -4.50409,4.70457 -1.58961,0.671312 -1.69086,0.86033 -1.54067,2.876748 l 0.16074,2.15815 -2.66804,0.153782 -2.66804,0.153782 z m 6.83739,-6.428924 c 1.05358,-0.872741 3.19306,-4.329621 3.16904,-5.120325 -0.0109,-0.357815 -0.76196,-1.115947 -1.66906,-1.684213 -2.44259,-1.530309 -2.34714,-2.776789 0.43115,-5.630106 2.68929,-2.761956 4.33427,-5.22434 4.33713,-6.492252 0.001,-0.472848 -1.14252,-1.55598 -2.56585,-2.430175 -1.91675,-1.177156 -2.56778,-1.885582 -2.56778,-2.794165 0,-2.034944 1.97779,-3.891586 6.35853,-5.969031 2.29537,-1.088521 5.85444,-3.191697 7.90902,-4.673754 5.38425,-3.883835 5.6268,-6.033692 0.87229,-7.731587 -2.84224,-1.014959 -3.30933,-1.560885 -3.32021,-3.880567 -0.007,-1.467101 0.70533,-2.364787 5.69404,-7.176459 5.54598,-5.349243 7.65052,-8.19814 7.65052,-10.356472 0,-1.383854 -2.81194,-3.080599 -5.13555,-3.098884 -0.98859,-0.0061 -2.69788,-0.222801 -3.7984,-0.477692 -3.43172,-0.794579 -3.71031,-2.353647 -1.07071,-5.9919766 3.87341,-5.3390105 4.83833,-7.06197117 5.16222,-9.2178818 0.84523,-5.625989 -1.55672,-8.3948466 -7.28243,-8.3948466 -1.9313,0 -3.36689,-0.25368 -3.69943,-0.653573 -0.29891,-0.359631 -0.70526,-1.916459 -0.90306,-3.460089 -0.63201,-4.932094 -2.55209,-7.163624 -6.16384,-7.163624 -1.57834,0 -2.32125,-0.441971 -4.74154,-2.819352 -2.73825,-2.689908 -2.99275,-2.819351 -5.54516,-2.819351 -4.82516,0 -11.50138,3.848841 -11.50138,6.630474 0,0.469216 -0.23656,1.089731 -0.52576,1.378344 -0.28915,0.288795 -0.74444,1.866026 -1.01174,3.505315 -0.68046,4.173176 -1.29983,4.688042 -6.05151,5.0306 -4.26683,0.307563 -6.96995,1.353279 -7.87861,3.0479656 -1.11327,2.0763559 -0.25664,5.6891364 2.29157,9.6646964 3.60271,5.6206003 3.26516,7.0689333 -1.84025,7.8961463 -2.09915,0.340257 -4.82085,2.7724297 -5.34224,4.7742557 -0.59667,2.290924 1.32121,5.751315 5.33989,9.634546 4.20291,4.061229 4.49576,5.192251 1.64917,6.369166 -2.23559,0.924325 -4.60691,3.550965 -4.59354,5.088177 0.0218,2.475219 3.64965,5.502116 10.24881,8.550445 4.58452,2.117768 6.05281,3.388283 6.46789,5.596746 0.3176,1.689843 -0.87503,4.850057 -1.83034,4.850057 -0.26537,0 -1.31141,0.726467 -2.32453,1.614345 -1.36611,1.197257 -1.80195,1.953391 -1.68692,2.926636 0.18925,1.601448 3.17859,3.78194 6.83132,4.982951 5.06971,1.667018 5.85413,3.044515 4.10844,7.214845 -0.42369,1.012113 -0.77034,2.38071 -0.77034,3.041305 0,1.443187 2.61913,4.550062 4.82662,5.725463 2.98389,1.588735 8.82869,1.875411 10.47254,0.513413 z"
         id="path1381"
         inkscape:connector-curvature="0" />
    </g>
  </g>
</svg>
